<svg xmlns="http://www.w3.org/2000/svg" xmlns:xlink="http://www.w3.org/1999/xlink" width="229" height="76" viewBox="0 0 229 76">
    <defs>
        <path id="a" d="M0 .33h24.926v34.176H0z"/>
        <path id="c" d="M0 75.192h228.604V0H0z"/>
    </defs>
    <g fill="none" fill-rule="evenodd">
        <g transform="translate(0 12.822)">
            <mask id="b" fill="#fff">
                <use xlink:href="#a"/>
            </mask>
            <path fill="#C00" d="M10.962 30.09c1.218 0 2.353-.19 3.393-.57a7.33 7.33 0 0 0 2.705-1.726c.755-.77 1.353-1.74 1.788-2.914.427-1.17.644-2.547.644-4.13V17.78l-4.293.201c-1.805.086-3.319.289-4.536.605-1.221.323-2.197.768-2.93 1.339-.734.57-1.257 1.257-1.574 2.072-.323.811-.483 1.725-.483 2.75 0 1.84.486 3.194 1.455 4.05.976.859 2.254 1.292 3.831 1.292zm10.029 3.814l-1.11-4.565h-.235a19.887 19.887 0 0 1-1.987 2.328 9.49 9.49 0 0 1-2.162 1.608 9.617 9.617 0 0 1-2.613.927c-.96.204-2.072.304-3.336.304-1.378 0-2.652-.199-3.812-.587a8.056 8.056 0 0 1-3.016-1.8c-.854-.818-1.516-1.834-1.998-3.064C.242 27.823 0 26.365 0 24.683c0-3.28 1.157-5.803 3.471-7.567 2.314-1.758 5.829-2.722 10.556-2.88l5.525-.211v-2.073c0-1.34-.149-2.461-.437-3.362-.289-.903-.712-1.623-1.257-2.179-.556-.549-1.235-.943-2.048-1.188-.803-.236-1.74-.356-2.78-.356-1.655 0-3.207.238-4.635.719a30.05 30.05 0 0 0-4.13 1.74L2.347 3.214c1.477-.797 3.128-1.48 4.948-2.043 1.826-.56 3.734-.84 5.736-.84 2.047 0 3.809.206 5.304.612 1.492.413 2.72 1.065 3.692 1.955.973.89 1.699 2.026 2.175 3.413.485 1.376.724 3.048.724 5.009v22.584H20.99z" mask="url(#b)"/>
        </g>
        <path fill="#C00" d="M42.555 42.853c.363 0 .765-.018 1.222-.061.444-.04.882-.09 1.299-.15.424-.063.808-.132 1.157-.213a7.12 7.12 0 0 0 .793-.207v4.142c-.26.12-.587.24-.99.362-.398.124-.839.226-1.32.318-.48.085-.982.159-1.499.209-.52.05-1.032.074-1.534.074-1.24 0-2.392-.16-3.45-.477a6.46 6.46 0 0 1-2.753-1.653c-.768-.785-1.374-1.836-1.815-3.173-.437-1.33-.658-3.004-.658-5.029v-19.13H28.35v-2.43l4.657-2.344 2.342-6.905H38.5v7.569h8.288v4.11H38.5v19.13c0 1.942.313 3.408.947 4.384.63.982 1.67 1.474 3.108 1.474M62.653 17.689c-2.287 0-4.09.775-5.423 2.343-1.334 1.555-2.111 3.83-2.332 6.815h14.775c0-1.361-.132-2.611-.399-3.741-.277-1.128-.693-2.096-1.27-2.896a5.846 5.846 0 0 0-2.172-1.862c-.883-.44-1.94-.66-3.18-.66M64 47.329c-2.2 0-4.216-.375-6.035-1.113a12.904 12.904 0 0 1-4.7-3.241c-1.31-1.423-2.325-3.187-3.05-5.291-.717-2.097-1.076-4.497-1.076-7.203 0-2.716.328-5.154.99-7.298.662-2.147 1.588-3.96 2.791-5.446 1.204-1.493 2.637-2.631 4.311-3.412 1.666-.782 3.514-1.171 5.54-1.171 1.98 0 3.763.355 5.344 1.063a11.385 11.385 0 0 1 4.024 3.006c1.1 1.29 1.942 2.842 2.54 4.657.585 1.809.884 3.816.884 6.02v3.393H54.781c.1 3.863.915 6.706 2.45 8.53 1.53 1.818 3.806 2.731 6.827 2.731 1.022 0 1.966-.047 2.841-.15a22.3 22.3 0 0 0 2.521-.435 19.277 19.277 0 0 0 2.358-.721c.762-.292 1.53-.62 2.31-.976v4.862c-.8.38-1.587.715-2.356.993a19.551 19.551 0 0 1-4.893 1.077c-.875.086-1.815.125-2.84.125"/>
        <mask id="d" fill="#fff">
            <use xlink:href="#c"/>
        </mask>
        <path fill="#C00" d="M81.414 46.726h5.47V0h-5.47zM94.872 46.726h5.465V13.755h-5.465v32.971zm-.419-41.89c0-1.2.306-2.071.914-2.617.61-.537 1.368-.808 2.273-.808.436 0 .853.063 1.241.195.391.133.73.34 1.019.613.295.282.527.638.697 1.072.164.432.252.947.252 1.546 0 1.157-.312 2.03-.95 2.594-.627.574-1.38.855-2.26.855-.904 0-1.663-.278-2.272-.84-.608-.557-.914-1.426-.914-2.61zM133.376 46.726l-5.045-18.498c-.08-.364-.18-.767-.302-1.22-.119-.449-.239-.925-.364-1.423a62.576 62.576 0 0 0-.374-1.53 345.3 345.3 0 0 0-.377-1.532c-.277-1.158-.566-2.36-.87-3.606h-.176c-.282 1.264-.548 2.472-.812 3.635-.22 1.004-.455 2.03-.705 3.094a44.857 44.857 0 0 1-.708 2.703l-5.163 18.377h-6.337l-8.438-32.971h5.735l3.935 17.537c.2.9.399 1.875.598 2.927.2 1.052.392 2.09.577 3.12.178 1.038.338 2.007.477 2.915.135.915.25 1.657.327 2.238h.182c.1-.521.234-1.22.41-2.089.163-.873.356-1.792.565-2.76.21-.968.428-1.934.648-2.886.221-.948.43-1.756.63-2.415l5.377-18.587h5.885l5.161 18.587c.182.681.389 1.483.618 2.4.233.922.458 1.86.675 2.81.221.95.42 1.867.602 2.748.181.88.314 1.61.392 2.192h.181c.057-.521.153-1.22.281-2.089.133-.873.289-1.825.467-2.87.181-1.037.374-2.1.587-3.192.21-1.094.42-2.105.644-3.05l4.113-17.536h5.585l-8.526 32.971h-6.455zM160.31 42.912c1.224 0 2.353-.19 3.395-.57a7.282 7.282 0 0 0 2.703-1.726c.762-.77 1.357-1.74 1.79-2.914.429-1.17.642-2.547.642-4.13v-2.969l-4.29.201c-1.802.086-3.315.289-4.54.605-1.217.323-2.194.768-2.926 1.339-.731.57-1.256 1.257-1.574 2.072-.324.811-.485 1.725-.485 2.75 0 1.84.493 3.194 1.457 4.05.976.859 2.25 1.292 3.827 1.292zm10.032 3.814l-1.111-4.565h-.242a18.545 18.545 0 0 1-1.983 2.328 9.496 9.496 0 0 1-2.159 1.608 9.585 9.585 0 0 1-2.608.927c-.964.204-2.08.304-3.34.304-1.382 0-2.648-.199-3.813-.587a8.052 8.052 0 0 1-3.015-1.8c-.855-.818-1.517-1.834-1.998-3.064-.484-1.232-.721-2.69-.721-4.372 0-3.28 1.156-5.803 3.466-7.567 2.312-1.758 5.832-2.722 10.557-2.88l5.525-.21v-2.074c0-1.34-.143-2.461-.434-3.362-.289-.903-.709-1.623-1.26-2.179-.553-.549-1.236-.943-2.045-1.188-.812-.236-1.737-.356-2.777-.356-1.658 0-3.21.238-4.638.719a29.965 29.965 0 0 0-4.13 1.74l-1.923-4.112c1.485-.797 3.133-1.48 4.956-2.043 1.823-.56 3.735-.84 5.735-.84 2.044 0 3.807.206 5.302.612 1.492.413 2.72 1.065 3.692 1.955.971.89 1.695 2.026 2.178 3.413.482 1.376.72 3.048.72 5.009v22.584h-3.934zM196.2 13.153c.583 0 1.23.023 1.95.075.727.051 1.344.127 1.866.227l-.722 5.042a32.56 32.56 0 0 0-1.726-.255c-.593-.07-1.148-.1-1.667-.1-1.26 0-2.41.251-3.453.76a7.76 7.76 0 0 0-2.689 2.192c-.747.952-1.328 2.09-1.74 3.427-.414 1.33-.616 2.805-.616 4.43v17.775h-5.465V13.755h4.443l.658 6.034h.242a31.183 31.183 0 0 1 1.609-2.492 11.76 11.76 0 0 1 1.923-2.115 8.745 8.745 0 0 1 2.389-1.474c.877-.372 1.876-.555 2.998-.555M215.689 17.689c-2.279 0-4.085.775-5.419 2.343-1.328 1.555-2.105 3.83-2.324 6.815h14.774c0-1.361-.132-2.611-.406-3.741-.27-1.128-.69-2.096-1.261-2.896a5.931 5.931 0 0 0-2.176-1.862c-.881-.44-1.946-.66-3.188-.66m1.356 29.64c-2.208 0-4.216-.375-6.039-1.113a12.927 12.927 0 0 1-4.699-3.241c-1.31-1.423-2.325-3.187-3.047-5.291-.724-2.097-1.082-4.497-1.082-7.203 0-2.716.334-5.154.992-7.298.66-2.147 1.595-3.96 2.796-5.446 1.195-1.493 2.634-2.631 4.304-3.412 1.674-.782 3.517-1.171 5.543-1.171 1.98 0 3.763.355 5.343 1.063 1.582.716 2.928 1.715 4.027 3.006 1.1 1.29 1.947 2.842 2.536 4.657.59 1.809.886 3.816.886 6.02v3.393h-20.781c.1 3.863.919 6.706 2.446 8.53 1.533 1.818 3.808 2.731 6.836 2.731 1.02 0 1.965-.047 2.832-.15a22.132 22.132 0 0 0 2.526-.435 19.398 19.398 0 0 0 2.356-.721 42.04 42.04 0 0 0 2.314-.976v4.862c-.798.38-1.583.715-2.36.993-.766.28-1.563.509-2.368.689-.815.181-1.652.31-2.527.388-.865.085-1.815.125-2.834.125" mask="url(#d)"/>
        <path fill="#666" d="M66.475 63.526c.992-1.612 2.1-2.418 3.32-2.418 1.278 0 1.917.663 1.917 1.989 0 .38-.108 1.036-.324 1.97l-.463 2.12c-.159.718-.238 1.346-.238 1.883 0 .572.21.859.631.859.345 0 .727-.138 1.148-.412l.324.525c-.783.678-1.513 1.016-2.19 1.016-.496 0-.892-.16-1.186-.482-.295-.32-.442-.755-.442-1.305 0-.548.113-1.357.34-2.426l.413-1.857c.175-.724.262-1.282.262-1.673 0-.706-.274-1.059-.824-1.059-.665 0-1.35.454-2.053 1.362-.704.908-1.149 1.8-1.336 2.675l-.964 4.59h-1.672l2.33-11.088c.11-.526.166-.842.166-.946 0-.56-.42-.842-1.261-.842h-.14l.158-.753h3.301l-.7 3.294c-.21.98-.447 1.973-.71 2.978h.193zM80.664 62.545c-.275-.432-.727-.648-1.358-.648-1.022 0-1.88.649-2.57 1.948-.692 1.3-1.039 2.636-1.039 4.008 0 1.383.377 2.076 1.13 2.076.596 0 1.22-.441 1.874-1.323a7.178 7.178 0 0 0 1.297-2.89l.666-3.171zm-1.017 5.632h-.113c-.859 1.92-1.977 2.881-3.354 2.881-.731 0-1.298-.288-1.704-.863-.406-.574-.609-1.38-.609-2.413 0-1.647.512-3.173 1.537-4.58s2.293-2.111 3.806-2.111c.811 0 1.511.216 2.102.648l.788-.455h.578l-1.226 5.745c-.176.824-.263 1.487-.263 1.988 0 .607.195.912.587.912.339 0 .77-.156 1.296-.465l.325.526c-.86.712-1.703 1.068-2.532 1.068-.935 0-1.401-.496-1.401-1.489 0-.38.061-.844.183-1.392zM85.945 70.883h-1.673l1.506-7.209c.07-.332.106-.601.106-.805 0-.566-.418-.85-1.253-.85h-.14l.157-.753h3.32l-.481 2.26h.175c.969-1.612 2.058-2.417 3.267-2.417 1.278 0 1.918.662 1.918 1.988 0 .379-.108 1.036-.324 1.97l-.465 2.12c-.157.718-.236 1.346-.236 1.883 0 .572.21.859.63.859.344 0 .727-.138 1.148-.413l.324.526c-.783.678-1.512 1.016-2.19 1.016-.496 0-.892-.16-1.187-.481-.295-.321-.442-.757-.442-1.305 0-.55.114-1.358.342-2.426l.411-1.857c.175-.725.264-1.282.264-1.673 0-.707-.275-1.06-.824-1.06-.666 0-1.347.449-2.045 1.348-.698.9-1.146 1.796-1.345 2.69l-.963 4.589zM101.798 62.545c-.275-.432-.727-.648-1.357-.648-1.022 0-1.88.649-2.571 1.948-.692 1.3-1.038 2.636-1.038 4.008 0 1.383.377 2.076 1.13 2.076.596 0 1.22-.441 1.874-1.323a7.178 7.178 0 0 0 1.296-2.89l.666-3.171zm-1.017 5.632h-.113c-.858 1.92-1.976 2.881-3.354 2.881-.73 0-1.298-.288-1.704-.863-.406-.574-.609-1.38-.609-2.413 0-1.647.512-3.173 1.537-4.58s2.293-2.111 3.806-2.111c.671 0 1.258.143 1.76.429.093-.548.16-.884.201-1.007l.176-.858c.081-.404.122-.672.122-.807 0-.56-.417-.84-1.252-.84h-.14l.158-.753h3.302l-2.085 9.774c-.176.824-.263 1.487-.263 1.988 0 .607.195.912.587.912.34 0 .77-.156 1.296-.465l.325.526c-.86.712-1.703 1.068-2.532 1.068-.935 0-1.401-.496-1.401-1.489 0-.38.061-.844.183-1.392zM112.676 70.883h-1.708c0-.27.076-.89.228-1.862.152-.972.28-1.697.385-2.175l.412-1.857c.175-.725.262-1.282.262-1.673 0-.707-.274-1.06-.823-1.06-.665 0-1.35.454-2.053 1.361-.704.909-1.15 1.8-1.337 2.677l-.963 4.589h-1.673l1.507-7.209c.07-.332.105-.601.105-.805 0-.566-.418-.85-1.253-.85h-.14l.158-.753h3.32l-.482 2.26h.175c.969-1.612 2.058-2.417 3.266-2.417 1.28 0 1.919.662 1.919 1.988 0 .145-.012.289-.035.43h.175c.975-1.613 2.064-2.418 3.267-2.418 1.28 0 1.918.662 1.918 1.988 0 .379-.108 1.036-.324 1.97l-.465 2.12a8.911 8.911 0 0 0-.227 1.883c0 .572.207.859.622.859.344 0 .727-.138 1.148-.413l.324.526c-.76.678-1.49 1.016-2.19 1.016-.491 0-.885-.16-1.183-.481-.298-.321-.447-.757-.447-1.305 0-.55.115-1.358.342-2.426l.307-1.402c.25-1.15.376-1.86.376-2.128 0-.707-.277-1.06-.832-1.06-.613 0-1.247.392-1.9 1.178-.654.785-1.112 1.607-1.376 2.465l-.288 1.287c-.077.328-.182.968-.316 1.919-.134.951-.201 1.544-.201 1.778M128.258 62.545c-.275-.432-.728-.648-1.358-.648-1.022 0-1.88.649-2.57 1.948-.693 1.3-1.039 2.636-1.039 4.008 0 1.383.377 2.076 1.13 2.076.596 0 1.22-.441 1.874-1.323a7.178 7.178 0 0 0 1.297-2.89l.666-3.171zm-1.017 5.632h-.114c-.858 1.92-1.976 2.881-3.354 2.881-.73 0-1.297-.288-1.703-.863-.406-.574-.609-1.38-.609-2.413 0-1.647.512-3.173 1.537-4.58s2.293-2.111 3.805-2.111c.812 0 1.512.216 2.102.648l.789-.455h.578l-1.226 5.745c-.176.824-.263 1.487-.263 1.988 0 .607.195.912.587.912.339 0 .77-.156 1.296-.465l.325.526c-.86.712-1.703 1.068-2.532 1.068-.935 0-1.401-.496-1.401-1.489 0-.38.061-.844.183-1.392zM138.645 62.545c-.275-.432-.727-.648-1.357-.648-1.022 0-1.88.649-2.571 1.948-.692 1.3-1.038 2.636-1.038 4.008 0 1.383.377 2.076 1.13 2.076.596 0 1.22-.441 1.874-1.323a7.178 7.178 0 0 0 1.296-2.89l.666-3.171zm-1.016 5.632h-.114c-.858 1.92-1.976 2.881-3.354 2.881-.73 0-1.298-.288-1.704-.863-.405-.574-.608-1.38-.608-2.413 0-1.647.512-3.173 1.537-4.58 1.024-1.407 2.292-2.111 3.805-2.111.671 0 1.259.143 1.76.429.093-.548.16-.884.201-1.007l.176-.858c.081-.404.122-.672.122-.807 0-.56-.417-.84-1.252-.84h-.14l.158-.753h3.302l-2.084 9.774c-.176.824-.264 1.487-.264 1.988 0 .607.196.912.587.912.34 0 .77-.156 1.296-.465l.325.526c-.859.712-1.702 1.068-2.532 1.068-.934 0-1.4-.496-1.4-1.489 0-.38.06-.844.183-1.392zM144.303 65.917h.175c1.057 0 1.928-.257 2.615-.771.686-.514 1.03-1.18 1.03-1.997 0-.8-.349-1.2-1.043-1.2-.579 0-1.12.363-1.621 1.09-.502.727-.887 1.687-1.156 2.878m4.353 2.724c.122.076.184.225.184.446 0 .479-.282.928-.845 1.345-.565.418-1.319.626-2.264.626-1.046 0-1.89-.33-2.532-.99-.642-.66-.963-1.564-.963-2.715 0-1.565.505-3 1.515-4.304 1.01-1.305 2.286-1.958 3.827-1.958.76 0 1.347.18 1.765.543.418.362.626.867.626 1.515 0 .97-.504 1.814-1.51 2.531-1.008.719-2.238 1.077-3.692 1.077h-.307c-.104 0-.213-.005-.324-.016a5.879 5.879 0 0 0-.034.753c0 1.623.656 2.435 1.97 2.435 1.021 0 1.883-.43 2.584-1.288M161.46 63.92c0-.602-.14-1.084-.424-1.445-.283-.362-.678-.544-1.187-.544-.537 0-.962.146-1.274.434-.313.29-.47.658-.47 1.108 0 .398.15.736.448 1.016.297.28.76.557 1.384.832 1.436.642 2.155 1.571 2.155 2.786 0 .882-.34 1.594-1.017 2.136-.677.543-1.576.815-2.697.815-.905 0-1.625-.183-2.16-.547-.534-.365-.8-.857-.8-1.476 0-.385.106-.678.32-.88.213-.202.483-.302.81-.302 0 .74.179 1.318.538 1.73.36.41.863.617 1.51.617 1.291 0 1.937-.555 1.937-1.665 0-.426-.138-.786-.412-1.081-.275-.295-.742-.594-1.402-.898-.858-.409-1.434-.83-1.73-1.265-.295-.436-.442-.94-.442-1.51 0-.784.32-1.425.96-1.924.639-.499 1.472-.748 2.5-.748.881 0 1.57.162 2.062.49.494.327.74.73.74 1.208 0 .742-.45 1.113-1.348 1.113M167.706 70.182c.987 0 1.773-.585 2.36-1.756.587-1.17.88-2.468.88-3.893 0-1.664-.583-2.496-1.752-2.496-.974 0-1.763.586-2.364 1.76s-.902 2.479-.902 3.915c0 1.647.593 2.47 1.778 2.47m1.699-9.091c1.056 0 1.889.318 2.496.954.607.637.91 1.557.91 2.76 0 1.594-.487 3.034-1.462 4.322-.975 1.288-2.256 1.931-3.845 1.931-1.08 0-1.923-.327-2.531-.981-.607-.654-.91-1.562-.91-2.724 0-1.611.49-3.058 1.475-4.34.984-1.282 2.273-1.922 3.867-1.922M179.89 62.29h-2.015l-1.866 8.733c-.31 1.442-.762 2.497-1.357 3.166-.597.669-1.44 1.003-2.532 1.003-.338 0-.686-.05-1.042-.149l.166-.823c.298.081.573.122.824.122.578 0 1.033-.247 1.366-.745.333-.496.63-1.347.893-2.557l1.883-8.75h-1.629l.106-.647 1.725-.377.193-.981c.42-2.143 1.556-3.215 3.406-3.215.766 0 1.343.121 1.73.364.389.242.583.565.583.968 0 .777-.497 1.165-1.489 1.165 0-1.115-.303-1.673-.91-1.673-.439 0-.778.18-1.021.543-.242.362-.433.922-.574 1.682l-.236 1.147h1.988l-.193 1.025z" mask="url(#d)"/>
        <path fill="#666" d="M184.689 69.534l.306.666c-.806.572-1.611.858-2.417.858-1.303 0-1.953-.698-1.953-2.093 0-.45.058-.952.175-1.507l1.095-5.167h-1.366l.165-.719c1.169 0 2.083-.837 2.742-2.513h.824l-.465 2.207h2.173l-.22 1.025h-2.172l-1.086 5.114c-.146.69-.219 1.204-.219 1.543 0 .653.319.98.955.98.485 0 .972-.131 1.463-.394M188.052 71.04l-.131-7.725c-.006-.42-.09-.74-.25-.962-.16-.223-.472-.334-.932-.334h-.176l.245-.753h2.698c.035 2.522.053 5.25.053 8.181h.07c1.56-2.739 2.893-5.41 4.003-8.014l1.488-.07c.252 3.147.377 5.882.377 8.206h.122c.976-1.197 1.781-2.38 2.418-3.551.637-1.17.954-2.1.954-2.79 0-.549-.256-.908-.77-1.077.105-.707.458-1.06 1.06-1.06.63 0 .945.447.945 1.34 0 1.723-1.5 4.534-4.502 8.435l-1.768.192-.272-7.76c-.543 1.29-1.804 3.801-3.784 7.532l-1.848.21zM208.153 62.545c-.275-.432-.727-.648-1.357-.648-1.022 0-1.88.649-2.571 1.948-.692 1.3-1.038 2.636-1.038 4.008 0 1.383.377 2.076 1.13 2.076.596 0 1.22-.441 1.874-1.323a7.178 7.178 0 0 0 1.296-2.89l.666-3.171zm-1.016 5.632h-.114c-.858 1.92-1.976 2.881-3.354 2.881-.73 0-1.298-.288-1.704-.863-.405-.574-.608-1.38-.608-2.413 0-1.647.512-3.173 1.537-4.58 1.024-1.407 2.292-2.111 3.805-2.111.812 0 1.512.216 2.102.648l.788-.455h.579l-1.226 5.745c-.176.824-.264 1.487-.264 1.988 0 .607.196.912.588.912.338 0 .77-.156 1.295-.465l.325.526c-.859.712-1.702 1.068-2.532 1.068-.934 0-1.4-.496-1.4-1.489 0-.38.06-.844.183-1.392zM217.971 63.692c0-.946-.24-1.419-.718-1.419-.555 0-1.144.547-1.765 1.638-.621 1.092-1.081 2.327-1.38 3.705l-.674 3.267h-1.673l1.507-7.209c.07-.332.105-.6.105-.805 0-.567-.476-.85-1.428-.85h-.149l.166-.753h3.172l-.377 2.583h.184c.478-1.068.951-1.794 1.419-2.18a2.484 2.484 0 0 1 1.629-.578c.98 0 1.471.412 1.471 1.235 0 .911-.497 1.366-1.489 1.366M222.201 65.917h.176c1.057 0 1.928-.257 2.614-.771.686-.514 1.03-1.18 1.03-1.997 0-.8-.348-1.2-1.043-1.2-.578 0-1.119.363-1.62 1.09-.502.727-.887 1.687-1.157 2.878m4.353 2.724c.123.076.185.225.185.446 0 .479-.282.928-.846 1.345-.564.418-1.318.626-2.264.626-1.045 0-1.89-.33-2.532-.99-.64-.66-.962-1.564-.962-2.715 0-1.565.504-3 1.514-4.304 1.011-1.305 2.287-1.958 3.828-1.958.759 0 1.347.18 1.765.543.417.362.626.867.626 1.515 0 .97-.504 1.814-1.511 2.531-1.007.719-2.237 1.077-3.691 1.077h-.307c-.104 0-.213-.005-.324-.016a5.878 5.878 0 0 0-.035.753c0 1.623.657 2.435 1.971 2.435 1.021 0 1.882-.43 2.583-1.288" mask="url(#d)"/>
    </g>
</svg>
